<svg xmlns="http://www.w3.org/2000/svg" width="45" height="47" fill="none"><path fill="#F4F4F5" d="M0 20C0 8.954 8.954 0 20 0s20 8.954 20 20-8.954 20-20 20S0 31.046 0 20Z"/><path fill="#09090B" d="M18.773 18h-1.41a2.927 2.927 0 0 0-1.187-1.84 3.184 3.184 0 0 0-.971-.478 3.882 3.882 0 0 0-1.114-.16 3.55 3.55 0 0 0-1.915.535c-.568.356-1.02.88-1.358 1.574-.333.693-.5 1.543-.5 2.55 0 1.008.167 1.859.5 2.552.337.693.79 1.218 1.358 1.574a3.55 3.55 0 0 0 1.915.534c.386 0 .758-.053 1.114-.16.356-.105.68-.262.971-.47a2.982 2.982 0 0 0 1.188-1.847h1.409a4.693 4.693 0 0 1-.58 1.596c-.28.47-.629.87-1.045 1.2a4.577 4.577 0 0 1-1.404.743 5.23 5.23 0 0 1-1.653.256c-.992 0-1.875-.242-2.648-.727-.772-.485-1.38-1.174-1.824-2.068-.443-.894-.664-1.955-.664-3.182 0-1.227.221-2.288.664-3.182.444-.894 1.052-1.583 1.824-2.068.773-.485 1.655-.728 2.648-.728.587 0 1.138.086 1.653.256.52.17.987.42 1.404.75.416.326.765.724 1.045 1.193.28.466.474.998.58 1.597Zm11.504-3.636V26h-1.364l-6.34-9.136h-.114V26h-1.41V14.364h1.364l6.364 9.159h.114v-9.16h1.386Z"/><g filter="url(#a)"><circle cx="34" cy="34" r="5" fill="#53B483" stroke="#fff"/></g><defs><filter id="a" width="21" height="21" x="23.5" y="25.5" color-interpolation-filters="sRGB" filterUnits="userSpaceOnUse"><feFlood flood-opacity="0" result="BackgroundImageFix"/><feColorMatrix in="SourceAlpha" result="hardAlpha" values="0 0 0 0 0 0 0 0 0 0 0 0 0 0 0 0 0 0 127 0"/><feOffset dy="2"/><feGaussianBlur stdDeviation="2.5"/><feComposite in2="hardAlpha" operator="out"/><feColorMatrix values="0 0 0 0 0.403922 0 0 0 0 0.431373 0 0 0 0 0.462745 0 0 0 0.08 0"/><feBlend in2="BackgroundImageFix" result="effect1_dropShadow_48_303"/><feColorMatrix in="SourceAlpha" result="hardAlpha" values="0 0 0 0 0 0 0 0 0 0 0 0 0 0 0 0 0 0 127 0"/><feOffset dy="1"/><feGaussianBlur stdDeviation=".5"/><feComposite in2="hardAlpha" operator="out"/><feColorMatrix values="0 0 0 0 0 0 0 0 0 0 0 0 0 0 0 0 0 0 0.12 0"/><feBlend in2="effect1_dropShadow_48_303" result="effect2_dropShadow_48_303"/><feBlend in="SourceGraphic" in2="effect2_dropShadow_48_303" result="shape"/></filter></defs></svg>