<svg xmlns="http://www.w3.org/2000/svg" width="16" height="16" fill="none"><g clip-path="url(#a)"><path fill="#09090B" stroke="#71717A" d="m8.047 8 .354-.354 1.756-1.756M8.047 8l2.463-2.51a.533.533 0 0 1 0 .754l-.353-.354M8.047 8l.354.354 1.756 1.756M8.047 8l2.11 2.11m0-4.22a.033.033 0 0 0 0-.047m0 .047v-.047m0 0a.033.033 0 0 0-.047 0L8.354 7.6 8 7.953l-.354-.354L5.89 5.843a.033.033 0 0 0-.047.047L7.6 7.646 7.953 8l-.354.354-1.756 1.756a.033.033 0 0 0 0 .047m4.314-4.314-3.913 4.668a.533.533 0 0 1-.754 0l.353-.354m0 0a.033.033 0 0 0 .047 0m-.047 0h.047m0 0L7.646 8.4 8 8.047l.354.354 1.756 1.756a.033.033 0 0 0 .047-.047m-4.267.047 4.62-.4-.353.353M1.436 8a6.564 6.564 0 1 1 13.128 0A6.564 6.564 0 0 1 1.436 8ZM8 1.449A6.551 6.551 0 1 0 8 14.55 6.551 6.551 0 0 0 8 1.449Z"/></g><defs><clipPath id="a"><path fill="#fff" d="M0 0h16v16H0z"/></clipPath></defs></svg>