<svg xmlns="http://www.w3.org/2000/svg" width="29" height="24" fill="none"><path stroke="#09090B" stroke-linecap="round" stroke-linejoin="round" stroke-width="2" d="M19.4 14.9C20.2 16.4 21 17 21 17H3s3-2 3-9c0-3.3 2.7-6 6-6 .7 0 1.3.1 1.9.3M10.3 21a1.94 1.94 0 0 0 3.4 0M21 8a3 3 0 1 1-6 0 3 3 0 0 1 6 0Z"/><g filter="url(#a)"><circle cx="19" cy="8" r="4.625" fill="#FF3B30" stroke="#fff" stroke-width=".75"/><path fill="#fff" d="M18.998 9.442c-.232 0-.435-.034-.61-.102a.935.935 0 0 1-.408-.294.714.714 0 0 1-.064-.762.836.836 0 0 1 .208-.252.603.603 0 0 1 .26-.132.84.84 0 0 1-.302-.24.589.589 0 0 1-.124-.378c0-.176.046-.324.136-.444a.853.853 0 0 1 .374-.276c.158-.063.334-.094.53-.094.199 0 .376.031.532.094a.838.838 0 0 1 .372.276c.091.12.136.268.136.444 0 .148-.04.274-.122.378a.82.82 0 0 1-.3.24.604.604 0 0 1 .258.132.82.82 0 0 1 .21.252.714.714 0 0 1-.064.762.92.92 0 0 1-.408.294c-.174.068-.379.102-.614.102Zm0-.44c.171 0 .304-.038.4-.114a.372.372 0 0 0 .146-.306.386.386 0 0 0-.066-.224.442.442 0 0 0-.188-.154.695.695 0 0 0-.292-.056.685.685 0 0 0-.288.056.443.443 0 0 0-.188.154.386.386 0 0 0-.066.224c0 .127.049.229.146.306.098.076.23.114.396.114Zm0-1.328a.497.497 0 0 0 .328-.106.366.366 0 0 0 .13-.298.37.37 0 0 0-.13-.298.49.49 0 0 0-.328-.11c-.13 0-.239.037-.326.11a.37.37 0 0 0-.13.298c0 .127.044.226.13.298a.5.5 0 0 0 .326.106Z"/></g><defs><filter id="a" width="20" height="20" x="9" y="0" color-interpolation-filters="sRGB" filterUnits="userSpaceOnUse"><feFlood flood-opacity="0" result="BackgroundImageFix"/><feColorMatrix in="SourceAlpha" result="hardAlpha" values="0 0 0 0 0 0 0 0 0 0 0 0 0 0 0 0 0 0 127 0"/><feOffset dy="2"/><feGaussianBlur stdDeviation="2.5"/><feComposite in2="hardAlpha" operator="out"/><feColorMatrix values="0 0 0 0 0.403922 0 0 0 0 0.431373 0 0 0 0 0.462745 0 0 0 0.08 0"/><feBlend in2="BackgroundImageFix" result="effect1_dropShadow_28_311"/><feColorMatrix in="SourceAlpha" result="hardAlpha" values="0 0 0 0 0 0 0 0 0 0 0 0 0 0 0 0 0 0 127 0"/><feOffset dy="1"/><feGaussianBlur stdDeviation=".5"/><feComposite in2="hardAlpha" operator="out"/><feColorMatrix values="0 0 0 0 0 0 0 0 0 0 0 0 0 0 0 0 0 0 0.12 0"/><feBlend in2="effect1_dropShadow_28_311" result="effect2_dropShadow_28_311"/><feBlend in="SourceGraphic" in2="effect2_dropShadow_28_311" result="shape"/></filter></defs></svg>