<svg xmlns="http://www.w3.org/2000/svg" width="16" height="16" fill="none">
    <path stroke="#71717A" stroke-linecap="round" stroke-linejoin="round"
          d="M8.147 1.333h-.294A1.333 1.333 0 0 0 6.52 2.667v.12a1.333 1.333 0 0 1-.667 1.153l-.286.167a1.333 1.333 0 0 1-1.334 0l-.1-.054a1.333 1.333 0 0 0-1.82.487l-.146.253a1.333 1.333 0 0 0 .486 1.82l.1.067a1.333 1.333 0 0 1 .667 1.147v.34a1.333 1.333 0 0 1-.667 1.16l-.1.06a1.333 1.333 0 0 0-.486 1.82l.146.253a1.334 1.334 0 0 0 1.82.487l.1-.054a1.334 1.334 0 0 1 1.334 0l.286.167a1.333 1.333 0 0 1 .667 1.153v.12a1.333 1.333 0 0 0 1.333 1.334h.294a1.333 1.333 0 0 0 1.333-1.334v-.12a1.334 1.334 0 0 1 .667-1.153l.286-.167a1.334 1.334 0 0 1 1.334 0l.1.054a1.333 1.333 0 0 0 1.82-.487l.146-.26a1.334 1.334 0 0 0-.486-1.82l-.1-.053a1.333 1.333 0 0 1-.667-1.16v-.334a1.333 1.333 0 0 1 .667-1.16l.1-.06a1.334 1.334 0 0 0 .486-1.82l-.146-.253a1.333 1.333 0 0 0-1.82-.487l-.1.054a1.333 1.333 0 0 1-1.334 0l-.286-.167a1.333 1.333 0 0 1-.667-1.153v-.12a1.333 1.333 0 0 0-1.333-1.334Z"/>
    <path stroke="#71717A" stroke-linecap="round" stroke-linejoin="round" d="M8 10a2 2 0 1 0 0-4 2 2 0 0 0 0 4Z"/>
</svg>